<svg xmlns="http://www.w3.org/2000/svg" viewBox="0 0 512 512" role="img" aria-labelledby="title desc">
  <title id="title">Smart Rental AI Customer Service Logo</title>
  <desc id="desc">Blue AI support robot with headset, calendar, map pin, and vehicle circuit line.</desc>
  <defs>
    <linearGradient id="aiBlue" x1="88" y1="76" x2="426" y2="444" gradientUnits="userSpaceOnUse">
      <stop offset="0" stop-color="#0D64C8"/>
      <stop offset="0.54" stop-color="#08BDEB"/>
      <stop offset="1" stop-color="#0B1F58"/>
    </linearGradient>
    <linearGradient id="aiDark" x1="143" y1="155" x2="374" y2="354" gradientUnits="userSpaceOnUse">
      <stop offset="0" stop-color="#081D52"/>
      <stop offset="1" stop-color="#07133E"/>
    </linearGradient>
    <filter id="softShadow" x="-20%" y="-20%" width="140%" height="140%">
      <feDropShadow dx="0" dy="14" stdDeviation="13" flood-color="#06143E" flood-opacity="0.18"/>
    </filter>
  </defs>

  <rect width="512" height="512" rx="96" fill="#FFFFFF"/>

  <g fill="none" stroke-linecap="round" stroke-linejoin="round">
    <path d="M98 154C128 82 202 42 278 55c45 8 84 32 112 67" stroke="url(#aiBlue)" stroke-width="9"/>
    <path d="M419 153c19 39 22 83 9 123" stroke="#11C5F2" stroke-width="9"/>
    <circle cx="408" cy="75" r="14" stroke="#11C5F2" stroke-width="9"/>
  </g>

  <g filter="url(#softShadow)">
    <path d="M145 252c0-68 51-123 113-123s113 55 113 123c0 47-24 88-59 109l-54 80-55-80c-35-21-58-62-58-109z" fill="#FFFFFF"/>
    <path d="M166 253c0-56 41-101 92-101s92 45 92 101c0 40-21 74-51 91l-41 60-42-60c-30-17-50-51-50-91z" fill="#FFFFFF" stroke="url(#aiDark)" stroke-width="12"/>
    <rect x="176" y="190" width="164" height="88" rx="35" fill="url(#aiDark)"/>
    <path d="M220 236c8-15 24-15 33 0" stroke="#11C5F2" stroke-width="9"/>
    <path d="M263 236c8-15 25-15 33 0" stroke="#11C5F2" stroke-width="9"/>
    <path d="M239 258c11 10 27 10 38 0" stroke="#11C5F2" stroke-width="7"/>
  </g>

  <g fill="none" stroke-linecap="round" stroke-linejoin="round">
    <path d="M142 182c-27 12-45 38-45 70v19" stroke="#0B1F58" stroke-width="8"/>
    <path d="M374 183c27 12 45 38 45 70v20" stroke="#0B1F58" stroke-width="8"/>
    <rect x="73" y="229" width="30" height="67" rx="15" fill="#14ADEF" stroke="#14ADEF" stroke-width="5"/>
    <rect x="413" y="229" width="30" height="67" rx="15" fill="#14ADEF" stroke="#14ADEF" stroke-width="5"/>
    <path d="M350 293c28 0 51-18 64-43" stroke="#0B1F58" stroke-width="8"/>
    <circle cx="352" cy="293" r="12" fill="#139EEB" stroke="#139EEB" stroke-width="5"/>
  </g>

  <g>
    <rect x="201" y="92" width="111" height="75" rx="9" fill="#FFFFFF" stroke="#0B1F58" stroke-width="7"/>
    <path d="M201 116h111" stroke="#0B1F58" stroke-width="7"/>
    <path d="M224 81v22M289 81v22" stroke="#0B1F58" stroke-width="8" stroke-linecap="round"/>
    <g fill="#139EEB">
      <rect x="219" y="128" width="13" height="12" rx="2"/>
      <rect x="242" y="128" width="13" height="12" rx="2"/>
      <rect x="265" y="128" width="13" height="12" rx="2"/>
      <rect x="288" y="128" width="13" height="12" rx="2"/>
      <rect x="219" y="148" width="13" height="12" rx="2"/>
      <rect x="242" y="148" width="13" height="12" rx="2"/>
      <rect x="265" y="148" width="13" height="12" rx="2"/>
      <rect x="288" y="148" width="13" height="12" rx="2"/>
    </g>
  </g>

  <g fill="none" stroke-linecap="round" stroke-linejoin="round">
    <path d="M72 355c42-26 98-29 145-7" stroke="#0B1F58" stroke-width="7"/>
    <path d="M337 346c44-21 94-15 126 16" stroke="#0B1F58" stroke-width="7"/>
    <path d="M67 381h67l18 18h77l19-23h41l19 23h116" stroke="#11BDF0" stroke-width="8"/>
    <circle cx="72" cy="381" r="22" fill="#FFFFFF" stroke="#129BEA" stroke-width="8"/>
    <circle cx="228" cy="399" r="14" fill="#FFFFFF" stroke="#11BDF0" stroke-width="7"/>
    <circle cx="423" cy="399" r="16" fill="#FFFFFF" stroke="#0B1F58" stroke-width="7"/>
  </g>
</svg>
